# xmcd CD Database Entry
#
# Track frame offsets:
# 150
# 24655
# 49952
# 74045
# 96163
# 108094
# 133478
# 158552
# 187007
# 213277
# 247529
# 267451
#
# Disc length: 3831 seconds
#
# Revision: 5
# Processed by: cddbd v1.4PL0 Copyright (c) Steve Scherf et al.
# Submitted via: tcd 2.0b
#
DISCID=ad0ef50c
DTITLE=Micha³ Urbaniak - Sax, Love and Cinema
DYEAR=2001
DGENRE=Other
TTITLE0=Love Away
TTITLE1=Moonlight
TTITLE2=Horny
TTITLE3=Sunshine
TTITLE4=Ptak
TTITLE5=I Just Love You
TTITLE6=Moon Love
TTITLE7=Bossonoga
TTITLE8=Satin Lady
TTITLE9=Wonder Love
TTITLE10=Blue Ave
TTITLE11=Together Again
EXTD=YEAR: 2001 ID3G: 12
EXTT0=
EXTT1=
EXTT2=
EXTT3=
EXTT4=
EXTT5=
EXTT6=
EXTT7=
EXTT8=
EXTT9=
EXTT10=
EXTT11=
PLAYORDER=
